<?xml version="1.0" encoding="utf-8"?>
<!-- Generator: Adobe Illustrator 24.3.0, SVG Export Plug-In . SVG Version: 6.00 Build 0)  -->
<svg version="1.1" id="Layer_1" xmlns="http://www.w3.org/2000/svg" xmlns:xlink="http://www.w3.org/1999/xlink" x="0px" y="0px"
	 viewBox="0 0 250 150" style="enable-background:new 0 0 250 150;" xml:space="preserve">
<style type="text/css">
	.st0{fill:#FFFFFF;stroke:#000000;stroke-miterlimit:10;}
	.st1{fill:#0684C7;}
</style>
<path class="st0" d="M28.42-111.57"/>
<g>
	<g>
		<polygon class="st1" points="165.44,109.29 128.5,122.86 128.5,29.06 165.44,12.09 		"/>
		<polygon class="st1" points="176.32,119.26 128.5,131.36 128.5,126.04 169.38,113.28 169.38,27.84 176.04,27.84 176.04,119.26 		
			"/>
		<polygon class="st1" points="186.08,38.11 186.08,128.11 128.5,137.91 128.5,134.14 179.24,122 179.24,38.11 		"/>
	</g>
	<g>
		<polygon class="st1" points="84.56,109.29 121.5,122.86 121.5,29.06 84.56,12.09 		"/>
		<polygon class="st1" points="73.68,119.26 121.5,131.36 121.5,126.04 80.62,113.28 80.62,27.84 73.96,27.84 73.96,119.26 		"/>
		<polygon class="st1" points="63.92,38.11 63.92,128.11 121.5,137.91 121.5,134.14 70.76,122 70.76,38.11 		"/>
	</g>
</g>
</svg>
